<svg width="20" height="39" viewBox="0 0 20 39" fill="none" xmlns="http://www.w3.org/2000/svg">
<path d="M0.570178 0C0.380119 0 0.190059 0 0 0C5.08363 0.148083 9.90918 2.26811 13.4518 5.90981C16.9943 9.55151 18.9749 14.428 18.9727 19.5036C18.973 24.5779 16.9916 29.4526 13.4493 33.0927C9.90689 36.7329 5.0824 38.852 0 39H0.570178C5.6877 38.9025 10.5626 36.8051 14.1472 33.1588C17.7318 29.5124 19.7398 24.6082 19.7398 19.5C19.7398 14.3918 17.7318 9.48756 14.1472 5.84122C10.5626 2.19488 5.6877 0.0975464 0.570178 0Z" fill="url(#paint0_radial_27_115)"/>
<g opacity="0.75">
<mask id="mask0_27_115" style="mask-type:luminance" maskUnits="userSpaceOnUse" x="0" y="0" width="20" height="39">
<path d="M0.570178 0C0.380119 0 0.190059 0 0 0C5.08363 0.148083 9.90918 2.26811 13.4518 5.90981C16.9943 9.55151 18.9749 14.428 18.9727 19.5036C18.973 24.5779 16.9916 29.4526 13.4493 33.0927C9.90689 36.7329 5.0824 38.852 0 39H0.570178C5.6877 38.9025 10.5626 36.8051 14.1472 33.1588C17.7318 29.5124 19.7398 24.6082 19.7398 19.5C19.7398 14.3918 17.7318 9.48756 14.1472 5.84122C10.5626 2.19488 5.6877 0.0975464 0.570178 0Z" fill="white"/>
</mask>
<g mask="url(#mask0_27_115)">
<g opacity="0.3">
<path d="M7.675 37.8303C8.69834 36.809 8.70286 35.1577 7.68508 34.142C6.6673 33.1262 5.01263 33.1307 3.98929 34.152C2.96594 35.1733 2.96143 36.8246 3.97921 37.8404C4.99699 38.8561 6.65165 38.8516 7.675 37.8303Z" fill="url(#paint1_radial_27_115)"/>
<path d="M14.0147 35.9913C15.2507 35.9913 16.2526 34.9914 16.2526 33.7579C16.2526 32.5244 15.2507 31.5244 14.0147 31.5244C12.7787 31.5244 11.7767 32.5244 11.7767 33.7579C11.7767 34.9914 12.7787 35.9913 14.0147 35.9913Z" fill="url(#paint2_radial_27_115)"/>
</g>
</g>
</g>
<defs>
<radialGradient id="paint0_radial_27_115" cx="0" cy="0" r="1" gradientUnits="userSpaceOnUse" gradientTransform="translate(10.0565 19.5036) scale(15.5421 15.5109)">
<stop stop-color="#C8C7C7"/>
<stop offset="0.65" stop-color="#C8C7C7"/>
<stop offset="1" stop-color="#AAA9AA"/>
</radialGradient>
<radialGradient id="paint1_radial_27_115" cx="0" cy="0" r="1" gradientUnits="userSpaceOnUse" gradientTransform="translate(5.83364 35.9924) scale(2.61332 2.60806)">
<stop stop-color="#C8C7C7"/>
<stop offset="0.65" stop-color="#C8C7C7"/>
<stop offset="1" stop-color="#AAA9AA"/>
</radialGradient>
<radialGradient id="paint2_radial_27_115" cx="0" cy="0" r="1" gradientUnits="userSpaceOnUse" gradientTransform="translate(14.0147 33.7579) scale(2.23795 2.23345)">
<stop stop-color="#C8C7C7"/>
<stop offset="0.65" stop-color="#C8C7C7"/>
<stop offset="1" stop-color="#AAA9AA"/>
</radialGradient>
</defs>
</svg>
