<svg width="26" height="30" viewBox="0 0 26 30" fill="none" xmlns="http://www.w3.org/2000/svg">
<path d="M10.8354 1.19165e-06C9.54005 -0.000509156 8.24992 0.162908 6.99643 0.486276C2.7884 3.53993 0 8.902 0 14.9981C0 21.0943 2.7884 26.4563 6.99643 29.5119C9.08008 30.0511 11.256 30.1448 13.3791 29.7867C15.5022 29.4286 17.5238 28.6269 19.3093 27.435C21.0947 26.2431 22.603 24.6884 23.7336 22.8744C24.8643 21.0604 25.5913 19.0289 25.8662 16.9151C26.1412 14.8013 25.9578 12.6537 25.3283 10.6156C24.6988 8.57739 23.6376 6.69536 22.2153 5.09487C20.7931 3.49437 19.0426 2.21216 17.0803 1.33364C15.1181 0.455128 12.9892 0.000484642 10.8354 1.19165e-06Z" fill="white"/>
<mask id="mask0_343_58" style="mask-type:luminance" maskUnits="userSpaceOnUse" x="0" y="0" width="26" height="30">
<path d="M10.8354 1.19165e-06C9.54005 -0.000509156 8.24992 0.162908 6.99643 0.486276C2.7884 3.53993 0 8.902 0 14.9981C0 21.0943 2.7884 26.4563 6.99643 29.5119C9.08008 30.0511 11.256 30.1448 13.3791 29.7867C15.5022 29.4286 17.5238 28.6269 19.3093 27.435C21.0947 26.2431 22.603 24.6884 23.7336 22.8744C24.8643 21.0604 25.5913 19.0289 25.8662 16.9151C26.1412 14.8013 25.9578 12.6537 25.3283 10.6156C24.6988 8.57739 23.6376 6.69536 22.2153 5.09487C20.7931 3.49437 19.0426 2.21216 17.0803 1.33364C15.1181 0.455128 12.9892 0.000484642 10.8354 1.19165e-06Z" fill="white"/>
</mask>
<g mask="url(#mask0_343_58)">
<g opacity="0.3">
<path d="M16.015 27.8966C17.1589 27.8966 18.0861 26.979 18.0861 25.8472C18.0861 24.7153 17.1589 23.7977 16.015 23.7977C14.8712 23.7977 13.944 24.7153 13.944 25.8472C13.944 26.979 14.8712 27.8966 16.015 27.8966Z" fill="url(#paint0_radial_343_58)"/>
<path d="M16.337 14.4691C17.3696 14.4691 18.2066 13.6408 18.2066 12.619C18.2066 11.5972 17.3696 10.7689 16.337 10.7689C15.3045 10.7689 14.4674 11.5972 14.4674 12.619C14.4674 13.6408 15.3045 14.4691 16.337 14.4691Z" fill="url(#paint1_radial_343_58)"/>
<path d="M16.1844 21.0962C17.3147 21.0962 18.231 20.1895 18.231 19.071C18.231 17.9525 17.3147 17.0458 16.1844 17.0458C15.0541 17.0458 14.1378 17.9525 14.1378 19.071C14.1378 20.1895 15.0541 21.0962 16.1844 21.0962Z" fill="url(#paint2_radial_343_58)"/>
<path d="M18.4896 17.5486C19.4307 17.3288 20.0137 16.3955 19.7915 15.4642C19.5694 14.5328 18.6263 13.956 17.6851 14.1758C16.7439 14.3957 16.161 15.3289 16.3832 16.2602C16.6053 17.1916 17.5484 17.7684 18.4896 17.5486Z" fill="url(#paint3_radial_343_58)"/>
<path d="M22.4993 25.8472C23.4788 25.8472 24.2729 25.0614 24.2729 24.0921C24.2729 23.1228 23.4788 22.337 22.4993 22.337C21.5198 22.337 20.7257 23.1228 20.7257 24.0921C20.7257 25.0614 21.5198 25.8472 22.4993 25.8472Z" fill="url(#paint4_radial_343_58)"/>
<path d="M2.58323 11.9538C3.61578 11.9538 4.45283 11.1255 4.45283 10.1037C4.45283 9.08197 3.61578 8.25366 2.58323 8.25366C1.55067 8.25366 0.713623 9.08197 0.713623 10.1037C0.713623 11.1255 1.55067 11.9538 2.58323 11.9538Z" fill="url(#paint5_radial_343_58)"/>
<path d="M-0.628813 16.3658C0.16562 16.3658 0.809635 15.7285 0.809635 14.9423C0.809635 14.1562 0.16562 13.5189 -0.628813 13.5189C-1.42325 13.5189 -2.06726 14.1562 -2.06726 14.9423C-2.06726 15.7285 -1.42325 16.3658 -0.628813 16.3658Z" fill="url(#paint6_radial_343_58)"/>
<path d="M14.1869 17.2209C14.5664 17.2209 14.8741 16.9165 14.8741 16.5409C14.8741 16.1653 14.5664 15.8608 14.1869 15.8608C13.8073 15.8608 13.4996 16.1653 13.4996 16.5409C13.4996 16.9165 13.8073 17.2209 14.1869 17.2209Z" fill="url(#paint7_radial_343_58)"/>
<path d="M7.97578 19.9154C8.75591 19.1434 8.75591 17.8918 7.97578 17.1198C7.19566 16.3478 5.93083 16.3478 5.1507 17.1198C4.37058 17.8918 4.37058 19.1434 5.1507 19.9154C5.93083 20.6873 7.19566 20.6873 7.97578 19.9154Z" fill="url(#paint8_radial_343_58)"/>
<path d="M6.23946 17.5454C7.83745 17.1722 8.82713 15.5877 8.44997 14.0064C8.07281 12.4251 6.47164 11.4458 4.87364 11.819C3.27565 12.1922 2.28597 13.7767 2.66313 15.358C3.04029 16.9393 4.64147 17.9186 6.23946 17.5454Z" fill="url(#paint9_radial_343_58)"/>
<path d="M6.56344 10.1038C7.11975 10.1038 7.57073 9.6575 7.57073 9.107C7.57073 8.5565 7.11975 8.11023 6.56344 8.11023C6.00713 8.11023 5.55615 8.5565 5.55615 9.107C5.55615 9.6575 6.00713 10.1038 6.56344 10.1038Z" fill="url(#paint10_radial_343_58)"/>
<path d="M6.70652 11.4917C7.11102 11.4917 7.43893 11.1673 7.43893 10.767C7.43893 10.3667 7.11102 10.0422 6.70652 10.0422C6.30203 10.0422 5.97412 10.3667 5.97412 10.767C5.97412 11.1673 6.30203 11.4917 6.70652 11.4917Z" fill="url(#paint11_radial_343_58)"/>
<path d="M11.5773 25.346C13.3648 25.346 14.8138 23.9121 14.8138 22.1433C14.8138 20.3745 13.3648 18.9406 11.5773 18.9406C9.78985 18.9406 8.34082 20.3745 8.34082 22.1433C8.34082 23.9121 9.78985 25.346 11.5773 25.346Z" fill="url(#paint12_radial_343_58)"/>
<path d="M18.5191 24.6212C19.5517 24.6212 20.3887 23.7929 20.3887 22.7711C20.3887 21.7493 19.5517 20.921 18.5191 20.921C17.4866 20.921 16.6495 21.7493 16.6495 22.7711C16.6495 23.7929 17.4866 24.6212 18.5191 24.6212Z" fill="url(#paint13_radial_343_58)"/>
<path d="M9.87144 19.4735C10.904 19.4735 11.741 18.6452 11.741 17.6234C11.741 16.6016 10.904 15.7733 9.87144 15.7733C8.83888 15.7733 8.00183 16.6016 8.00183 17.6234C8.00183 18.6452 8.83888 19.4735 9.87144 19.4735Z" fill="url(#paint14_radial_343_58)"/>
<path d="M22.3891 21.5512C24.0812 21.156 25.1292 19.4782 24.7298 17.8038C24.3305 16.1294 22.635 15.0923 20.9429 15.4875C19.2508 15.8827 18.2028 17.5605 18.6022 19.235C19.0015 20.9094 20.697 21.9464 22.3891 21.5512Z" fill="url(#paint15_radial_343_58)"/>
<path d="M21.2604 15.3708C22.214 15.3708 22.987 14.6059 22.987 13.6623C22.987 12.7188 22.214 11.9539 21.2604 11.9539C20.3069 11.9539 19.5339 12.7188 19.5339 13.6623C19.5339 14.6059 20.3069 15.3708 21.2604 15.3708Z" fill="url(#paint16_radial_343_58)"/>
</g>
</g>
<path opacity="0.3" d="M10.8354 1.19165e-06C9.54005 -0.000509156 8.24992 0.162908 6.99643 0.486276C2.7884 3.53993 0 8.902 0 14.9981C0 21.0943 2.7884 26.4563 6.99643 29.5119C9.08008 30.0511 11.256 30.1448 13.3791 29.7867C15.5022 29.4286 17.5238 28.6269 19.3093 27.435C21.0947 26.2431 22.603 24.6884 23.7336 22.8744C24.8643 21.0604 25.5913 19.0289 25.8662 16.9151C26.1412 14.8013 25.9578 12.6537 25.3283 10.6156C24.6988 8.57739 23.6376 6.69536 22.2153 5.09487C20.7931 3.49437 19.0426 2.21216 17.0803 1.33364C15.1181 0.455128 12.9892 0.000484642 10.8354 1.19165e-06Z" fill="url(#paint17_radial_343_58)"/>
<path opacity="0.66" d="M10.8354 1.19165e-06C9.54005 -0.000509156 8.24992 0.162908 6.99643 0.486276C2.7884 3.53993 0 8.902 0 14.9981C0 21.0943 2.7884 26.4563 6.99643 29.5119C9.08008 30.0511 11.256 30.1448 13.3791 29.7867C15.5022 29.4286 17.5238 28.6269 19.3093 27.435C21.0947 26.2431 22.603 24.6884 23.7336 22.8744C24.8643 21.0604 25.5913 19.0289 25.8662 16.9151C26.1412 14.8013 25.9578 12.6537 25.3283 10.6156C24.6988 8.57739 23.6376 6.69536 22.2153 5.09487C20.7931 3.49437 19.0426 2.21216 17.0803 1.33364C15.1181 0.455128 12.9892 0.000484642 10.8354 1.19165e-06Z" fill="url(#paint18_radial_343_58)"/>
<defs>
<radialGradient id="paint0_radial_343_58" cx="0" cy="0" r="1" gradientUnits="userSpaceOnUse" gradientTransform="translate(16.015 25.8472) scale(2.07106 2.04943)">
<stop stop-color="#C8C7C7"/>
<stop offset="0.65" stop-color="#C8C7C7"/>
<stop offset="1" stop-color="#AAA9AA"/>
</radialGradient>
<radialGradient id="paint1_radial_343_58" cx="0" cy="0" r="1" gradientUnits="userSpaceOnUse" gradientTransform="translate(16.337 12.619) scale(1.86961 1.85008)">
<stop stop-color="#C8C7C7"/>
<stop offset="0.65" stop-color="#C8C7C7"/>
<stop offset="1" stop-color="#AAA9AA"/>
</radialGradient>
<radialGradient id="paint2_radial_343_58" cx="0" cy="0" r="1" gradientUnits="userSpaceOnUse" gradientTransform="translate(16.1844 19.071) scale(2.04659 2.02521)">
<stop stop-color="#C8C7C7"/>
<stop offset="0.65" stop-color="#C8C7C7"/>
<stop offset="1" stop-color="#AAA9AA"/>
</radialGradient>
<radialGradient id="paint3_radial_343_58" cx="0" cy="0" r="1" gradientUnits="userSpaceOnUse" gradientTransform="translate(18.0884 15.8619) scale(1.75099 1.7327)">
<stop stop-color="#C8C7C7"/>
<stop offset="0.65" stop-color="#C8C7C7"/>
<stop offset="1" stop-color="#AAA9AA"/>
</radialGradient>
<radialGradient id="paint4_radial_343_58" cx="0" cy="0" r="1" gradientUnits="userSpaceOnUse" gradientTransform="translate(22.4993 24.0921) scale(1.77358 1.75506)">
<stop stop-color="#C8C7C7"/>
<stop offset="0.65" stop-color="#C8C7C7"/>
<stop offset="1" stop-color="#AAA9AA"/>
</radialGradient>
<radialGradient id="paint5_radial_343_58" cx="0" cy="0" r="1" gradientUnits="userSpaceOnUse" gradientTransform="translate(2.58323 10.1037) scale(1.86961 1.85008)">
<stop stop-color="#C8C7C7"/>
<stop offset="0.65" stop-color="#C8C7C7"/>
<stop offset="1" stop-color="#AAA9AA"/>
</radialGradient>
<radialGradient id="paint6_radial_343_58" cx="0" cy="0" r="1" gradientUnits="userSpaceOnUse" gradientTransform="translate(-0.628813 14.9423) scale(1.43845 1.42343)">
<stop stop-color="#C8C7C7"/>
<stop offset="0.65" stop-color="#C8C7C7"/>
<stop offset="1" stop-color="#AAA9AA"/>
</radialGradient>
<radialGradient id="paint7_radial_343_58" cx="0" cy="0" r="1" gradientUnits="userSpaceOnUse" gradientTransform="translate(14.1869 16.5409) scale(0.687217 0.68004)">
<stop stop-color="#C8C7C7"/>
<stop offset="0.65" stop-color="#C8C7C7"/>
<stop offset="1" stop-color="#AAA9AA"/>
</radialGradient>
<radialGradient id="paint8_radial_343_58" cx="0" cy="0" r="1" gradientUnits="userSpaceOnUse" gradientTransform="translate(6.56317 18.5174) scale(1.99764 1.97677)">
<stop stop-color="#C8C7C7"/>
<stop offset="0.65" stop-color="#C8C7C7"/>
<stop offset="1" stop-color="#AAA9AA"/>
</radialGradient>
<radialGradient id="paint9_radial_343_58" cx="0" cy="0" r="1" gradientUnits="userSpaceOnUse" gradientTransform="translate(5.55657 14.6825) scale(2.97292 2.94187)">
<stop stop-color="#C8C7C7"/>
<stop offset="0.65" stop-color="#C8C7C7"/>
<stop offset="1" stop-color="#AAA9AA"/>
</radialGradient>
<radialGradient id="paint10_radial_343_58" cx="0" cy="0" r="1" gradientUnits="userSpaceOnUse" gradientTransform="translate(6.56344 9.107) scale(1.00729 0.996771)">
<stop stop-color="#C8C7C7"/>
<stop offset="0.65" stop-color="#C8C7C7"/>
<stop offset="1" stop-color="#AAA9AA"/>
</radialGradient>
<radialGradient id="paint11_radial_343_58" cx="0" cy="0" r="1" gradientUnits="userSpaceOnUse" gradientTransform="translate(6.70652 10.767) scale(0.732404 0.724755)">
<stop stop-color="#C8C7C7"/>
<stop offset="0.65" stop-color="#C8C7C7"/>
<stop offset="1" stop-color="#AAA9AA"/>
</radialGradient>
<radialGradient id="paint12_radial_343_58" cx="0" cy="0" r="1" gradientUnits="userSpaceOnUse" gradientTransform="translate(11.5773 22.1433) scale(3.23651 3.20271)">
<stop stop-color="#C8C7C7"/>
<stop offset="0.65" stop-color="#C8C7C7"/>
<stop offset="1" stop-color="#AAA9AA"/>
</radialGradient>
<radialGradient id="paint13_radial_343_58" cx="0" cy="0" r="1" gradientUnits="userSpaceOnUse" gradientTransform="translate(18.5191 22.7711) scale(1.86961 1.85008)">
<stop stop-color="#C8C7C7"/>
<stop offset="0.65" stop-color="#C8C7C7"/>
<stop offset="1" stop-color="#AAA9AA"/>
</radialGradient>
<radialGradient id="paint14_radial_343_58" cx="0" cy="0" r="1" gradientUnits="userSpaceOnUse" gradientTransform="translate(9.87144 17.6234) scale(1.86961 1.85008)">
<stop stop-color="#C8C7C7"/>
<stop offset="0.65" stop-color="#C8C7C7"/>
<stop offset="1" stop-color="#AAA9AA"/>
</radialGradient>
<radialGradient id="paint15_radial_343_58" cx="0" cy="0" r="1" gradientUnits="userSpaceOnUse" gradientTransform="translate(21.6662 18.5184) scale(3.14802 3.11514)">
<stop stop-color="#C8C7C7"/>
<stop offset="0.65" stop-color="#C8C7C7"/>
<stop offset="1" stop-color="#AAA9AA"/>
</radialGradient>
<radialGradient id="paint16_radial_343_58" cx="0" cy="0" r="1" gradientUnits="userSpaceOnUse" gradientTransform="translate(21.2605 13.6623) scale(1.72651 1.70848)">
<stop stop-color="#C8C7C7"/>
<stop offset="0.65" stop-color="#C8C7C7"/>
<stop offset="1" stop-color="#AAA9AA"/>
</radialGradient>
<radialGradient id="paint17_radial_343_58" cx="0" cy="0" r="1" gradientUnits="userSpaceOnUse" gradientTransform="translate(12.9969 14.9981) scale(14.1171 13.9697)">
<stop stop-color="#C8C7C7"/>
<stop offset="0.65" stop-color="#C8C7C7"/>
<stop offset="1" stop-color="#AAA9AA"/>
</radialGradient>
<radialGradient id="paint18_radial_343_58" cx="0" cy="0" r="1" gradientUnits="userSpaceOnUse" gradientTransform="translate(15.307 14.8991) scale(17.6549 24.284)">
<stop offset="0.57" stop-color="#130C0E" stop-opacity="0"/>
<stop offset="0.8" stop-color="#130C0E" stop-opacity="0.65"/>
<stop offset="0.82" stop-color="#130C0E" stop-opacity="0.7"/>
<stop offset="1" stop-color="#130C0E" stop-opacity="0.95"/>
</radialGradient>
</defs>
</svg>
